<svg xmlns="http://www.w3.org/2000/svg" version="1.1" xmlns:xlink="http://www.w3.org/1999/xlink" xmlns:svgjs="http://svgjs.com/svgjs" id="Pattern1419SvgRootPreview" width="100%" height="100%"><defs><pattern x="0" y="0" width="1" height="1" patternUnits="userSpaceOnUse" id="Pattern1419Layer1" patternTransform="matrix(0.569060773480663,0,0,0.569060773480663,0,0)"><g id="PatternRootContent1"><g id="Pattern1419Layer1background"><rect width="1" height="1" id="Pattern1419Background1" class="color_1 fill_color_1" fill="#99919c"></rect></g></g></pattern><pattern x="0" y="0" width="181" height="314" patternUnits="userSpaceOnUse" id="Pattern1419Layer2" patternTransform="matrix(0.2845303867403315,0,0,0.2845303867403315,0,0)"><g id="PatternRootContent2"><g id="Pattern1419Layer2Element3"><use xlink:href="#Pattern1419Element3" x="72.57695007324219" y="-176.5" transform="translate(181, -78.5) scale(1) translate(-181, 78.5) rotate(0, 181, -78.5)"></use><use xlink:href="#Pattern1419Element3" x="-108.42304992675781" y="-176.5" transform="translate(0, -78.5) scale(1) translate(0, 78.5) rotate(0, 0, -78.5)"></use><use xlink:href="#Pattern1419Element3" x="-17.923049926757812" y="-19.5" transform="translate(90.5, 78.5) scale(1) translate(-90.5, -78.5) rotate(0, 90.5, 78.5)"></use><use xlink:href="#Pattern1419Element3" x="-198.9230499267578" y="-19.5" transform="translate(-90.5, 78.5) scale(1) translate(90.5, -78.5) rotate(0, -90.5, 78.5)"></use><use xlink:href="#Pattern1419Element3" x="163.0769500732422" y="-19.5" transform="translate(271.5, 78.5) scale(1) translate(-271.5, -78.5) rotate(0, 271.5, 78.5)"></use><use xlink:href="#Pattern1419Element3" x="72.57695007324219" y="137.5" transform="translate(181, 235.5) scale(1) translate(-181, -235.5) rotate(0, 181, 235.5)"></use><use xlink:href="#Pattern1419Element3" x="-108.42304992675781" y="137.5" transform="translate(0, 235.5) scale(1) translate(0, -235.5) rotate(0, 0, 235.5)"></use><use xlink:href="#Pattern1419Element3" x="-17.923049926757812" y="294.5" transform="translate(90.5, 392.5) scale(1) translate(-90.5, -392.5) rotate(0, 90.5, 392.5)"></use><use xlink:href="#Pattern1419Element3" x="-17.923049926757812" y="294.5" transform="translate(90.5, 392.5) scale(1) translate(-90.5, -392.5) rotate(0, 90.5, 392.5)"></use></g></g></pattern><symbol id="Pattern1419Element3"><g class="color_4 fill_color_4" fill="#30324a"><g><path d="M102.423,122.41153717041016l-4,0l0,20l4,0L102.423,122.41153717041016ZM90.423,114.41153717041016l0,36l4,0L94.423,114.41153717041016l-4,0Zm16,0l0,36l4,0L110.423,114.41153717041016l-4,0Zm12,8l-4,0l0,20l4,0L118.423,122.41153717041016ZM126.423,114.41153717041016l-4,0l0,36L126.423,150.4115447998047L126.423,114.41153717041016Z"></path><path d="M142.6,171.21539306640625l2,-3.464l-17.321,-10l-2,3.464L142.6,171.21539306640625ZM155.528,164.82308959960938l-31.177,-18l-2,3.464L153.528,168.2871856689453l2,-3.464Zm-8,13.856l-31.177,-18l-2,3.464L145.528,182.1436004638672l2,-3.464Zm-12.928,6.392l2,-3.464l-17.321,-10l-2,3.464L134.6,185.07180786132812ZM137.528,196l2,-3.464l-31.177,-18L106.351,178L137.528,196Z"></path><path d="M80.246,181.60769653320312l2,3.464l17.321,-10l-2,-3.464L80.246,181.60769653320312ZM79.318,196l31.177,-18l-2,-3.464L77.318,192.53590393066406l2,3.464Zm-8,-13.856l31.177,-18l-2,-3.464L69.318,178.6794891357422l2,3.464Zm0.928,-14.392l2,3.464l17.321,-10l-2,-3.464L72.246,167.75128173828125ZM61.318,164.8230743408203l2,3.464l31.177,-18L92.495,146.82308959960938L61.318,164.8230743408203Z"></path></g><g><path d="M84.282,105.00951385498047l-2,-3.464l-17.321,10l2,3.464L84.282,105.00951385498047ZM85.21,90.6172103881836l-31.177,18l2,3.464L87.21,94.08130645751953l-2,-3.464Zm8,13.856l-31.177,18l2,3.464L95.21,107.93771362304688l-2,-3.464Zm-0.928,14.392l-2,-3.464l-17.321,10l2,3.464L92.282,118.86592102050781ZM103.21,121.79412841796875l-2,-3.464l-31.177,18L72.033,139.79412841796875L103.21,121.79412841796875Z"></path><path d="M62.105,164.2057342529297l4,0l0,-20l-4,0L62.105,164.2057342529297ZM74.105,172.20556640625l0,-36l-4,0L70.105,172.20556640625l4,0Zm-16,0l0,-36l-4,0L54.105,172.20556640625l4,0Zm-12,-8l4,0l0,-20l-4,0L46.105,164.20574951171875ZM38.105,172.20556640625l4,0l0,-36L38.105,136.2054901123047L38.105,172.20556640625Z"></path><path d="M21.928,115.40174102783203l-2,3.464l17.321,10l2,-3.464L21.928,115.40174102783203ZM9,121.79422760009766l31.177,18l2,-3.464L11,118.33012390136719l-2,3.464Zm8,-13.856l31.177,18l2,-3.464L19,104.47371673583984l-2,3.464Zm12.928,-6.392l-2,3.464l17.321,10l2,-3.464L29.928,101.54533386230469ZM27,90.6173095703125l-2,3.464l31.177,18L58.177,108.61738586425781L27,90.6173095703125Z"></path></g><g><path d="M90.282,80.59797668457031l2,-3.464l-17.321,-10l-2,3.464L90.282,80.59797668457031ZM103.21,74.20567321777344l-31.177,-18l-2,3.464L101.21,77.6697769165039l2,-3.464Zm-8,13.856l-31.177,-18l-2,3.464L93.21,91.52618408203125l2,-3.464Zm-12.928,6.392l2,-3.464l-17.321,-10l-2,3.464L82.282,94.45438385009766ZM85.21,105.3825912475586l2,-3.464l-31.177,-18L54.033,87.3825912475586L85.21,105.3825912475586Z"></path><path d="M27.928,90.9903564453125l2,3.464l17.321,-10l-2,-3.464L27.928,90.9903564453125ZM27,105.38249206542969l31.177,-18l-2,-3.464L25,101.91838836669922l2,3.464Zm-8,-13.856l31.177,-18l-2,-3.464L17,88.06198120117188l2,3.464Zm0.928,-14.392l2,3.464l17.321,-10l-2,-3.464L19.928,77.13394927978516ZM9,74.20557403564453l2,3.464l31.177,-18L40.177,56.205501556396484L9,74.20557403564453Z"></path><path d="M50.105,31.794055938720703l-4,0l0,20l4,0L50.105,31.794055938720703ZM38.105,23.79422950744629l0,36l4,0L42.105,23.79422950744629l-4,0Zm16,0l0,36l4,0L58.105,23.79422950744629l-4,0Zm12,8l-4,0l0,20l4,0L66.105,31.794055938720703ZM74.105,23.794231414794922l-4,0l0,36L74.105,59.794307708740234L74.105,23.794231414794922Z"></path></g><g><path d="M114.423,73.58846282958984l4,0l0,-20l-4,0L114.423,73.58846282958984ZM126.423,81.58846282958984l0,-36l-4,0L122.423,81.58846282958984l4,0Zm-16,0l0,-36l-4,0L106.423,81.58846282958984l4,0Zm-12,-8l4,0l0,-20l-4,0L98.423,73.58846282958984ZM90.423,81.58846282958984l4,0l0,-36L90.423,45.588462829589844L90.423,81.58846282958984Z"></path><path d="M74.246,24.78461456298828l-2,3.464l17.321,10l2,-3.464L74.246,24.78461456298828ZM61.318,31.176918029785156l31.177,18l2,-3.464L63.318,27.712818145751953l-2,3.464Zm8,-13.856l31.177,18l2,-3.464L71.318,13.856407165527344l-2,3.464Zm12.928,-6.392l-2,3.464l17.321,10l2,-3.464L82.246,10.928199768066406ZM79.318,-2.2737367544323206e-13l-2,3.464l31.177,18L110.495,18.000003814697266L79.318,-2.2737367544323206e-13Z"></path><path d="M136.6,14.392311096191406l-2,-3.464l-17.321,10l2,3.464L136.6,14.392311096191406ZM137.528,-2.2737367544323206e-13l-31.177,18l2,3.464L139.528,3.4641036987304688l-2,-3.464Zm8,13.856l-31.177,18l2,3.464L147.528,17.320510864257812l-2,-3.464Zm-0.928,14.392l-2,-3.464l-17.321,10l2,3.464L144.6,28.24871826171875ZM155.528,31.176921844482422l-2,-3.464l-31.177,18L124.351,49.176918029785156L155.528,31.176921844482422Z"></path></g><g><path d="M132.564,90.990478515625l2,3.464l17.321,-10l-2,-3.464L132.564,90.990478515625ZM131.636,105.3827896118164l31.177,-18l-2,-3.464L129.636,101.91868591308594l2,3.464Zm-8,-13.856l31.177,-18l-2,-3.464L121.636,88.0622787475586l2,3.464Zm0.928,-14.392l2,3.464l17.321,-10l-2,-3.464L124.564,77.13407135009766ZM113.636,74.20586395263672l2,3.464l31.177,-18L144.813,56.205867767333984L113.636,74.20586395263672Z"></path><path d="M154.741,31.794252395629883l-4,0l0,20l4,0L154.741,31.794252395629883ZM142.741,23.79442596435547l0,36l4,0L146.741,23.7944278717041l-4,0Zm16,0l0,36l4,0L162.741,23.79442596435547l-4,0Zm12,8l-4,0l0,20l4,0L170.741,31.794248580932617ZM178.741,23.79442596435547l-4,0l0,36L178.741,59.79450225830078L178.741,23.79442596435547Z"></path><path d="M194.918,80.59825134277344l2,-3.464l-17.321,-10l-2,3.464L194.918,80.59825134277344ZM207.846,74.20576477050781l-31.177,-18l-2,3.464L205.846,77.66986846923828l2,-3.464Zm-8,13.856l-31.177,-18l-2,3.464L197.846,91.52627563476562l2,-3.464Zm-12.928,6.392l2,-3.464l-17.321,-10l-2,3.464L186.918,94.45465850830078ZM189.846,105.3826904296875l2,-3.464l-31.177,-18L158.669,87.38260650634766L189.846,105.3826904296875Z"></path></g><g><path d="M126.564,115.40202331542969l-2,3.464l17.321,10l2,-3.464L126.564,115.40202331542969ZM113.636,121.7943344116211l31.177,18l2,-3.464L115.636,118.33023071289062l-2,3.464Zm8,-13.856l31.177,18l2,-3.464L123.636,104.47382354736328l-2,3.464Zm12.928,-6.392l-2,3.464l17.321,10l2,-3.464L134.564,101.54561614990234ZM131.636,90.6174087524414l-2,3.464l31.177,18L162.813,108.6174087524414L131.636,90.6174087524414Z"></path><path d="M188.918,105.00965118408203l-2,-3.464l-17.321,10l2,3.464L188.918,105.00965118408203ZM189.846,90.61751556396484l-31.177,18l2,3.464L191.846,94.08161926269531l-2,-3.464Zm8,13.856l-31.177,18l2,3.464L199.846,107.93802642822266l-2,-3.464Zm-0.928,14.392l-2,-3.464l-17.321,10l2,3.464L196.918,118.86605834960938ZM207.846,121.79443359375l-2,-3.464l-31.177,18L176.669,139.7945098876953L207.846,121.79443359375Z"></path><path d="M166.741,164.20594787597656l4,0l0,-20l-4,0L166.741,164.20594787597656ZM178.741,172.20578002929688l0,-36l-4,0L174.741,172.20578002929688l4,0Zm-16,0l0,-36l-4,0L158.741,172.20578002929688l4,0Zm-12,-8l4,0l0,-20l-4,0L150.741,164.20594787597656ZM142.741,172.20578002929688l4,0l0,-36L142.741,136.20570373535156L142.741,172.20578002929688Z"></path></g></g></symbol></defs><rect width="100%" height="100%" id="Pattern1419RctLayer1" fill="url(#Pattern1419Layer1)"></rect><rect width="100%" height="100%" id="Pattern1419RctLayer2" fill="url(#Pattern1419Layer2)"></rect></svg>